# xmcd CD database file
#
# Track frame offsets:
#	150
#	7472
#	18002
#	21668
#	26628
#	32191
#	39295
#	45123
#	51768
#	59486
#	68529
#	76166
#	86574
#	94336
#	102197
#	115009
#	123854
#	131609
#	138507
#	141562
#	145181
#	152892
#	163129
#	171290
#	179864
#	189721
#	197238
#	204415
#	211497
#
# Disc length: 2976 seconds
#
# Revision: 0
# Processed by: cddbd v1.5.2PL0 Copyright (c) Steve Scherf et al.
# Submitted via: CDex 1.51
#
DISCID=a70b9e1d
DTITLE=Scripture Scouts - Scripture Scouts Sing Along
DYEAR=2008
DGENRE=LDS Music
TTITLE0=The Family is the Reason
TTITLE1=From the Very Beginning
TTITLE2=Boy, Girl
TTITLE3=Family
TTITLE4=Family Reprise
TTITLE5=That's What Families Do
TTITLE6=Shout For Joy!
TTITLE7=Everyone's Invited
TTITLE8=Hooray for Babies!
TTITLE9=Mission to be Me
TTITLE10=On The Road Of Happiness
TTITLE11=Try It Out!
TTITLE12=Making Promises
TTITLE13=The Place Of Promises
TTITLE14=One Thing We Know For Sure
TTITLE15=Never Out Of Reach
TTITLE16=A House
TTITLE17=Light Up The House
TTITLE18=It's Fun To Work Together
TTITLE19=We Make Our Family
TTITLE20=Because They Love You
TTITLE21=Thank You For Being My Friend
TTITLE22=Never Lonely
TTITLE23=Self-Control
TTITLE24=Happy To Be With You
TTITLE25=Sailing
TTITLE26=When I meet My Saviour
TTITLE27=People Last Forever
TTITLE28=A Light In The Heart
EXTD=YEAR: 2008
EXTT0=
EXTT1=
EXTT2=
EXTT3=
EXTT4=
EXTT5=
EXTT6=
EXTT7=
EXTT8=
EXTT9=
EXTT10=
EXTT11=
EXTT12=
EXTT13=
EXTT14=
EXTT15=
EXTT16=
EXTT17=
EXTT18=
EXTT19=
EXTT20=
EXTT21=
EXTT22=
EXTT23=
EXTT24=
EXTT25=
EXTT26=
EXTT27=
EXTT28=
PLAYORDER=
